<svg width="128" height="128" viewBox="0 0 128 128" fill="none" xmlns="http://www.w3.org/2000/svg">
  <rect width="128" height="128" rx="32" fill="#050505"/>
  <rect x="1" y="1" width="126" height="126" rx="31" stroke="url(#paint0_linear)" stroke-opacity="0.72" stroke-width="2"/>
  <path d="M36 78C43.6 87.3 55.2 92 69.5 92C84.8 92 96 84.6 96 72.8C96 62.2 88.1 56.8 72.3 53.6L61.8 51.5C53.9 49.9 50.5 47.9 50.5 43.9C50.5 39.2 55.3 36.1 63.1 36.1C71.9 36.1 79.1 39.7 84.2 46.2L95 36.1C87.7 27.4 76.9 23 63.7 23C48.4 23 37.4 31.1 37.4 44C37.4 54.8 44.9 60.7 60.2 63.8L70.5 65.9C79.2 67.7 82.8 69.7 82.8 73.6C82.8 78.1 77.7 80.7 69.5 80.7C59.7 80.7 51.3 76.7 45.7 69.3L36 78Z" fill="url(#paint1_linear)"/>
  <defs>
    <linearGradient id="paint0_linear" x1="12" y1="14" x2="119" y2="112" gradientUnits="userSpaceOnUse">
      <stop stop-color="#6C3BFF"/>
      <stop offset="0.5" stop-color="#FF4FBF"/>
      <stop offset="1" stop-color="#B68CFF"/>
    </linearGradient>
    <linearGradient id="paint1_linear" x1="36" y1="23" x2="98" y2="90" gradientUnits="userSpaceOnUse">
      <stop stop-color="#FFFFFF"/>
      <stop offset="0.44" stop-color="#B68CFF"/>
      <stop offset="1" stop-color="#FF4FBF"/>
    </linearGradient>
  </defs>
</svg>