<svg width="900" height="560" viewBox="0 0 900 560" fill="none" xmlns="http://www.w3.org/2000/svg">
  <rect width="900" height="560" rx="40" fill="#070710"/>
  <circle cx="170" cy="118" r="155" fill="#6C3BFF" opacity="0.35" filter="url(#blur)"/>
  <circle cx="710" cy="130" r="170" fill="#FF4FBF" opacity="0.26" filter="url(#blur)"/>
  <rect x="90" y="88" width="720" height="384" rx="32" fill="white" fill-opacity="0.06" stroke="white" stroke-opacity="0.12"/>
  <rect x="130" y="132" width="255" height="70" rx="20" fill="#6C3BFF" fill-opacity="0.28"/>
  <rect x="420" y="132" width="330" height="70" rx="20" fill="white" fill-opacity="0.08"/>
  <rect x="130" y="238" width="210" height="178" rx="24" fill="white" fill-opacity="0.08"/>
  <rect x="374" y="238" width="376" height="178" rx="24" fill="white" fill-opacity="0.08"/>
  <path d="M410 374C456 298 498 356 542 310C585 265 624 286 706 246" stroke="#B68CFF" stroke-width="10" stroke-linecap="round"/>
  <circle cx="202" cy="319" r="45" fill="#FF4FBF" fill-opacity="0.78"/>
  <circle cx="268" cy="319" r="45" fill="#6C3BFF" fill-opacity="0.78"/>
  <defs><filter id="blur" x="-120" y="-160" width="1100" height="900" filterUnits="userSpaceOnUse"><feGaussianBlur stdDeviation="80"/></filter></defs>
</svg>