<svg width="900" height="560" viewBox="0 0 900 560" fill="none" xmlns="http://www.w3.org/2000/svg">
  <rect width="900" height="560" rx="40" fill="#08060E"/>
  <path d="M0 430C164 330 250 455 400 350C560 238 678 338 900 196V560H0V430Z" fill="#FF4FBF" fill-opacity="0.18"/>
  <rect x="86" y="82" width="728" height="396" rx="34" fill="white" fill-opacity="0.06" stroke="white" stroke-opacity="0.12"/>
  <rect x="132" y="132" width="150" height="92" rx="24" fill="#FF4FBF" fill-opacity="0.32"/>
  <rect x="306" y="132" width="150" height="92" rx="24" fill="#6C3BFF" fill-opacity="0.24"/>
  <rect x="480" y="132" width="150" height="92" rx="24" fill="#B68CFF" fill-opacity="0.24"/>
  <rect x="654" y="132" width="110" height="92" rx="24" fill="white" fill-opacity="0.08"/>
  <rect x="132" y="270" width="632" height="150" rx="24" fill="white" fill-opacity="0.07"/>
  <rect x="178" y="342" width="48" height="48" rx="14" fill="#FF4FBF"/>
  <rect x="270" y="314" width="48" height="76" rx="14" fill="#B68CFF"/>
  <rect x="362" y="286" width="48" height="104" rx="14" fill="#6C3BFF"/>
  <rect x="454" y="330" width="48" height="60" rx="14" fill="#FF4FBF"/>
  <rect x="546" y="300" width="48" height="90" rx="14" fill="#B68CFF"/>
  <rect x="638" y="272" width="48" height="118" rx="14" fill="#6C3BFF"/>
</svg>